<mxfile host="app.diagrams.net" agent="Mozilla/5.0 (Macintosh; Intel Mac OS X 10.15; rv:134.0) Gecko/20100101 Firefox/134.0" version="26.0.8">
  <diagram name="Page-1" id="kRa1jRh_TbUVb3UarL87">
    <mxGraphModel dx="1242" dy="1195" grid="1" gridSize="10" guides="1" tooltips="1" connect="1" arrows="1" fold="1" page="0" pageScale="1" pageWidth="850" pageHeight="1100" math="0" shadow="0">
      <root>
        <mxCell id="0" />
        <mxCell id="1" parent="0" />
        <mxCell id="MgCkxdkbHL-GaKU8l4sx-3" value="Load Balancer" style="whiteSpace=wrap;strokeWidth=2;" vertex="1" parent="1">
          <mxGeometry x="358" y="198" width="161" height="54" as="geometry" />
        </mxCell>
        <mxCell id="MgCkxdkbHL-GaKU8l4sx-4" value="Sensor Input App" style="whiteSpace=wrap;strokeWidth=2;" vertex="1" parent="1">
          <mxGeometry x="348" y="327" width="181" height="54" as="geometry" />
        </mxCell>
        <mxCell id="MgCkxdkbHL-GaKU8l4sx-5" value="Pub/Sub Broker" style="whiteSpace=wrap;strokeWidth=2;" vertex="1" parent="1">
          <mxGeometry x="355" y="456" width="172" height="54" as="geometry" />
        </mxCell>
        <mxCell id="MgCkxdkbHL-GaKU8l4sx-6" value="WebSocket Clients" style="whiteSpace=wrap;strokeWidth=2;" vertex="1" parent="1">
          <mxGeometry x="346" y="583" width="192" height="54" as="geometry" />
        </mxCell>
        <mxCell id="MgCkxdkbHL-GaKU8l4sx-7" value="Validate Sensor Data" style="whiteSpace=wrap;strokeWidth=2;" vertex="1" parent="1">
          <mxGeometry x="721" y="456" width="207" height="54" as="geometry" />
        </mxCell>
        <mxCell id="MgCkxdkbHL-GaKU8l4sx-8" value="Buffer Queue" style="whiteSpace=wrap;strokeWidth=2;" vertex="1" parent="1">
          <mxGeometry x="627" y="583" width="155" height="54" as="geometry" />
        </mxCell>
        <mxCell id="MgCkxdkbHL-GaKU8l4sx-9" value="Retry Queue" style="whiteSpace=wrap;strokeWidth=2;" vertex="1" parent="1">
          <mxGeometry x="833" y="583" width="148" height="54" as="geometry" />
        </mxCell>
        <mxCell id="MgCkxdkbHL-GaKU8l4sx-10" value="Database Time-series" style="whiteSpace=wrap;strokeWidth=2;" vertex="1" parent="1">
          <mxGeometry x="599" y="761" width="213" height="54" as="geometry" />
        </mxCell>
        <mxCell id="MgCkxdkbHL-GaKU8l4sx-11" value="Prometheus Metrics" style="whiteSpace=wrap;strokeWidth=2;" vertex="1" parent="1">
          <mxGeometry x="55" y="456" width="201" height="54" as="geometry" />
        </mxCell>
        <mxCell id="MgCkxdkbHL-GaKU8l4sx-12" value="Alertmanager" style="whiteSpace=wrap;strokeWidth=2;" vertex="1" parent="1">
          <mxGeometry x="77" y="583" width="157" height="54" as="geometry" />
        </mxCell>
        <mxCell id="MgCkxdkbHL-GaKU8l4sx-13" value="On-call Engineers" style="whiteSpace=wrap;strokeWidth=2;" vertex="1" parent="1">
          <mxGeometry x="63" y="761" width="185" height="54" as="geometry" />
        </mxCell>
        <mxCell id="MgCkxdkbHL-GaKU8l4sx-14" value="Send Data" style="curved=1;startArrow=none;endArrow=block;exitX=0.5;exitY=1;entryX=0.5;entryY=-0.01;rounded=0;" edge="1" parent="1" target="MgCkxdkbHL-GaKU8l4sx-3">
          <mxGeometry relative="1" as="geometry">
            <Array as="points" />
            <mxPoint x="439" y="99" as="sourcePoint" />
          </mxGeometry>
        </mxCell>
        <mxCell id="MgCkxdkbHL-GaKU8l4sx-15" value="" style="curved=1;startArrow=none;endArrow=block;exitX=0.5;exitY=0.99;entryX=0.5;entryY=-0.01;rounded=0;" edge="1" parent="1" source="MgCkxdkbHL-GaKU8l4sx-3" target="MgCkxdkbHL-GaKU8l4sx-4">
          <mxGeometry relative="1" as="geometry">
            <Array as="points" />
          </mxGeometry>
        </mxCell>
        <mxCell id="MgCkxdkbHL-GaKU8l4sx-16" value="" style="curved=1;startArrow=none;endArrow=block;exitX=0.51;exitY=0.99;entryX=0.5;entryY=-0.01;rounded=0;" edge="1" parent="1" source="MgCkxdkbHL-GaKU8l4sx-4" target="MgCkxdkbHL-GaKU8l4sx-5">
          <mxGeometry relative="1" as="geometry">
            <Array as="points">
              <mxPoint x="441" y="406" />
            </Array>
          </mxGeometry>
        </mxCell>
        <mxCell id="MgCkxdkbHL-GaKU8l4sx-17" value="Subscribe to sensor_id" style="curved=1;startArrow=none;endArrow=block;exitX=0.5;exitY=0.99;entryX=0.5;entryY=0;rounded=0;" edge="1" parent="1" source="MgCkxdkbHL-GaKU8l4sx-5" target="MgCkxdkbHL-GaKU8l4sx-6">
          <mxGeometry relative="1" as="geometry">
            <Array as="points" />
          </mxGeometry>
        </mxCell>
        <mxCell id="MgCkxdkbHL-GaKU8l4sx-18" value="" style="curved=1;startArrow=none;endArrow=block;exitX=0.7;exitY=0.99;entryX=0;entryY=0.18;rounded=0;" edge="1" parent="1" source="MgCkxdkbHL-GaKU8l4sx-4" target="MgCkxdkbHL-GaKU8l4sx-7">
          <mxGeometry relative="1" as="geometry">
            <Array as="points">
              <mxPoint x="507" y="406" />
              <mxPoint x="507" y="431" />
            </Array>
          </mxGeometry>
        </mxCell>
        <mxCell id="MgCkxdkbHL-GaKU8l4sx-19" value="Valid" style="curved=1;startArrow=none;endArrow=block;exitX=0.26;exitY=0.99;entryX=0.5;entryY=0;rounded=0;" edge="1" parent="1" source="MgCkxdkbHL-GaKU8l4sx-7" target="MgCkxdkbHL-GaKU8l4sx-8">
          <mxGeometry relative="1" as="geometry">
            <Array as="points">
              <mxPoint x="705" y="546" />
            </Array>
          </mxGeometry>
        </mxCell>
        <mxCell id="MgCkxdkbHL-GaKU8l4sx-20" value="Invalid" style="curved=1;startArrow=none;endArrow=block;exitX=0.53;exitY=0.99;entryX=0.31;entryY=0;rounded=0;" edge="1" parent="1" source="MgCkxdkbHL-GaKU8l4sx-7" target="MgCkxdkbHL-GaKU8l4sx-9">
          <mxGeometry relative="1" as="geometry">
            <Array as="points">
              <mxPoint x="839" y="546" />
            </Array>
          </mxGeometry>
        </mxCell>
        <mxCell id="MgCkxdkbHL-GaKU8l4sx-21" value="Retry" style="curved=1;startArrow=none;endArrow=block;exitX=0.64;exitY=0;entryX=0.77;entryY=0.99;rounded=0;" edge="1" parent="1" source="MgCkxdkbHL-GaKU8l4sx-9" target="MgCkxdkbHL-GaKU8l4sx-7">
          <mxGeometry relative="1" as="geometry">
            <Array as="points">
              <mxPoint x="955" y="546" />
            </Array>
          </mxGeometry>
        </mxCell>
        <mxCell id="MgCkxdkbHL-GaKU8l4sx-22" value="" style="curved=1;startArrow=none;endArrow=block;exitX=0.5;exitY=1;entryX=0.5;entryY=-0.01;rounded=0;" edge="1" parent="1" source="MgCkxdkbHL-GaKU8l4sx-8" target="MgCkxdkbHL-GaKU8l4sx-10">
          <mxGeometry relative="1" as="geometry">
            <Array as="points" />
          </mxGeometry>
        </mxCell>
        <mxCell id="MgCkxdkbHL-GaKU8l4sx-23" value="" style="curved=1;startArrow=none;endArrow=block;exitX=0.32;exitY=0.99;entryX=1;entryY=0.05;rounded=0;" edge="1" parent="1" source="MgCkxdkbHL-GaKU8l4sx-4" target="MgCkxdkbHL-GaKU8l4sx-11">
          <mxGeometry relative="1" as="geometry">
            <Array as="points">
              <mxPoint x="376" y="406" />
              <mxPoint x="376" y="431" />
            </Array>
          </mxGeometry>
        </mxCell>
        <mxCell id="MgCkxdkbHL-GaKU8l4sx-24" value="" style="curved=1;startArrow=none;endArrow=block;exitX=0.5;exitY=0.99;entryX=0.5;entryY=0;rounded=0;" edge="1" parent="1" source="MgCkxdkbHL-GaKU8l4sx-11" target="MgCkxdkbHL-GaKU8l4sx-12">
          <mxGeometry relative="1" as="geometry">
            <Array as="points" />
          </mxGeometry>
        </mxCell>
        <mxCell id="MgCkxdkbHL-GaKU8l4sx-25" value="Notify" style="curved=1;startArrow=none;endArrow=block;exitX=0.5;exitY=1;entryX=0.5;entryY=-0.01;rounded=0;" edge="1" parent="1" source="MgCkxdkbHL-GaKU8l4sx-12" target="MgCkxdkbHL-GaKU8l4sx-13">
          <mxGeometry relative="1" as="geometry">
            <Array as="points" />
          </mxGeometry>
        </mxCell>
        <mxCell id="MgCkxdkbHL-GaKU8l4sx-51" value="" style="shape=sumEllipse;perimeter=ellipsePerimeter;whiteSpace=wrap;html=1;backgroundOutline=1;" vertex="1" parent="1">
          <mxGeometry x="380" y="-30" width="80" height="80" as="geometry" />
        </mxCell>
        <mxCell id="MgCkxdkbHL-GaKU8l4sx-52" value="Sensors" style="text;html=1;align=center;verticalAlign=middle;whiteSpace=wrap;rounded=0;" vertex="1" parent="1">
          <mxGeometry x="405" y="70" width="60" height="30" as="geometry" />
        </mxCell>
        <mxCell id="MgCkxdkbHL-GaKU8l4sx-53" value="" style="shape=sumEllipse;perimeter=ellipsePerimeter;whiteSpace=wrap;html=1;backgroundOutline=1;" vertex="1" parent="1">
          <mxGeometry x="390" y="-20" width="80" height="80" as="geometry" />
        </mxCell>
        <mxCell id="MgCkxdkbHL-GaKU8l4sx-54" value="" style="shape=sumEllipse;perimeter=ellipsePerimeter;whiteSpace=wrap;html=1;backgroundOutline=1;" vertex="1" parent="1">
          <mxGeometry x="400" y="-10" width="80" height="80" as="geometry" />
        </mxCell>
      </root>
    </mxGraphModel>
  </diagram>
</mxfile>
